<svg xmlns="http://www.w3.org/2000/svg" height="248.027" width="607.227"><defs><linearGradient id="b" spreadMethod="pad" gradientTransform="scale(-544.626 544.626) rotate(27.777 -3.505 -3.673)" gradientUnits="userSpaceOnUse" y2="0" x2="1" y1="0" x1="0"><stop offset="0" stop-color="#421644"/><stop offset="1" stop-color="#151530"/></linearGradient><linearGradient id="d" spreadMethod="pad" gradientTransform="scale(651.833 -651.833) rotate(65.986 2.103 .056)" gradientUnits="userSpaceOnUse" y2="0" x2="1" y1="0" x1="0"><stop offset="0" stop-color="#a21058"/><stop offset="1" stop-color="#421644"/></linearGradient><linearGradient id="f" spreadMethod="pad" gradientTransform="scale(649.524 -649.524) rotate(-66.448 -.235 -1.245)" gradientUnits="userSpaceOnUse" y2="0" x2="1" y1="0" x1="0"><stop offset="0" stop-color="#ee1a6d"/><stop offset="1" stop-color="#a21058"/></linearGradient><clipPath id="a" clipPathUnits="userSpaceOnUse"><path d="M987.855 678.551l-.019-.012-107.453 233.09-81.121-175.981 235.708-106.097.01.019c-21.01 10.09-37.828 27.52-47.125 48.981z"/></clipPath><clipPath id="c" clipPathUnits="userSpaceOnUse"><path d="M1164.61 758.172l.09.039-194.618 422.019c-.547 1.32-1.184 2.59-1.789 3.88l-1.465 3.16-.047-.02c-.332.64-.703 1.25-1.054 1.89 7.382-13.69 11.582-29.34 11.582-45.98 0-14.34-3.196-27.91-8.782-40.16l.059-.02-88.203-191.351 107.441-233.09.031.012c14.905-34.391 49.125-58.473 88.995-58.473 53.57 0 96.99 43.434 96.99 97 0 14.711-3.37 28.602-9.23 41.094z"/></clipPath><clipPath id="e" clipPathUnits="userSpaceOnUse"><path d="M880.316 1240.16c-37.687 0-70.265-21.53-86.328-52.91l-.05.02-1.465-3.16c-.606-1.29-1.239-2.56-1.785-3.88L596.066 758.211l.09-.039c-5.859-12.492-9.23-26.383-9.23-41.094 0-53.566 43.418-97 96.992-97 39.875 0 74.094 24.082 88.996 58.473l.02-.012 195.652 424.441-.059.02c5.586 12.25 8.782 25.82 8.782 40.16 0 53.57-43.43 97-96.993 97z"/></clipPath></defs><path d="M207.183 124.353h8.785l-4.392-9.796zm20.47 9.138c0 .965-.389 1.785-1.164 2.459-.776.674-1.662 1.01-2.657 1.01-.675 0-1.29-.176-1.845-.527-.556-.352-.996-.88-1.319-1.58l-1.976-4.438H204.46l-2.021 4.437c-.323.701-.768 1.23-1.339 1.581a3.505 3.505 0 01-1.867.527c-.996 0-1.897-.336-2.702-1.01-.806-.674-1.208-1.494-1.208-2.46 0-.528.132-1.07.396-1.626l11.597-23.808c.38-.79.944-1.399 1.69-1.823a4.921 4.921 0 012.48-.637c.88 0 1.7.212 2.462.637a4.047 4.047 0 011.712 1.823l11.599 23.808c.262.556.394 1.098.394 1.627M263.013 128.108c1.508-1.478 2.262-3.74 2.262-6.786 0-3.045-.754-5.3-2.262-6.765-1.509-1.464-3.77-2.197-6.786-2.197h-3.954v17.967h3.954c3.016 0 5.277-.74 6.786-2.219zm-17.857 7.754c-.644-.645-.965-1.566-.965-2.768v-23.5c0-1.2.321-2.123.965-2.767.645-.644 1.567-.968 2.77-.968h8.871c3.427 0 6.376.624 8.852 1.868 2.474 1.245 4.371 3.024 5.688 5.337 1.318 2.314 1.978 5.066 1.978 8.258 0 3.222-.654 5.996-1.955 8.323-1.305 2.33-3.193 4.108-5.667 5.338-2.476 1.23-5.44 1.845-8.896 1.845h-8.872c-1.202 0-2.124-.321-2.769-.966M310.3 128.548c1.319-1.654 1.977-4.063 1.977-7.226 0-3.163-.666-5.564-1.998-7.205-1.334-1.638-3.156-2.46-5.468-2.46-2.344 0-4.175.814-5.491 2.439-1.32 1.625-1.979 4.034-1.979 7.226s.659 5.608 1.979 7.247c1.316 1.641 3.147 2.46 5.49 2.46 2.343 0 4.174-.826 5.49-2.481zm-13.727 6.721c-2.328-1.304-4.122-3.148-5.38-5.536-1.261-2.386-1.889-5.189-1.889-8.411 0-3.22.628-6.025 1.89-8.413 1.257-2.385 3.051-4.222 5.38-5.512 2.327-1.289 5.074-1.933 8.237-1.933 3.161 0 5.906.644 8.234 1.933 2.33 1.29 4.114 3.127 5.359 5.512 1.247 2.388 1.867 5.192 1.867 8.413 0 3.222-.628 6.025-1.888 8.411-1.26 2.388-3.054 4.232-5.38 5.536-2.328 1.303-5.06 1.954-8.192 1.954-3.163 0-5.91-.651-8.238-1.954M355.452 118.642c.719-.615 1.077-1.565 1.077-2.855 0-2.547-1.465-3.822-4.393-3.822h-5.799v7.6h5.799c1.495 0 2.599-.308 3.316-.923zm-16.121 17.374c-.718-.717-1.075-1.692-1.075-2.922v-23.5c0-1.2.321-2.123.965-2.767.646-.644 1.567-.968 2.768-.968h11.246c3.426 0 6.089.873 7.994 2.614 1.903 1.743 2.856 4.167 2.856 7.27 0 3.075-.961 5.491-2.877 7.248-1.919 1.758-4.576 2.636-7.973 2.636h-6.898v7.467c0 1.23-.365 2.205-1.097 2.922-.733.717-1.73 1.076-2.987 1.076-1.229 0-2.204-.359-2.922-1.076M390.048 135.972c-.747-.719-1.12-1.676-1.12-2.878v-20.689h-6.193c-1.29 0-2.248-.27-2.878-.813-.629-.541-.944-1.368-.944-2.481 0-1.112.315-1.934.944-2.46.63-.527 1.588-.792 2.878-.792h20.557c1.29 0 2.248.265 2.877.792.63.526.944 1.348.944 2.46 0 1.113-.314 1.94-.944 2.481-.629.543-1.588.813-2.877.813h-6.193v20.69c0 1.201-.375 2.158-1.12 2.877-.747.717-1.735 1.076-2.966 1.076-1.23 0-2.218-.359-2.965-1.076M425.232 136.016c-.716-.717-1.076-1.692-1.076-2.922v-23.5c0-1.2.36-2.16 1.076-2.877.719-.718 1.693-1.077 2.923-1.077 1.258 0 2.253.359 2.986 1.077.732.716 1.099 1.676 1.099 2.876v23.501c0 1.23-.367 2.205-1.099 2.922-.733.717-1.728 1.076-2.986 1.076-1.23 0-2.204-.359-2.923-1.076M454.752 133.797c-2.328-2.284-3.492-5.623-3.492-10.015v-14.189c0-1.2.357-2.16 1.076-2.876.717-.718 1.676-1.077 2.876-1.077 1.201 0 2.16.359 2.879 1.077.717.716 1.076 1.676 1.076 2.876v14.496c0 2.226.497 3.939 1.493 5.14.993 1.2 2.43 1.8 4.305 1.8 1.872 0 3.308-.6 4.304-1.8.995-1.201 1.494-2.914 1.494-5.14v-14.496c0-1.2.358-2.16 1.076-2.876.717-.718 1.676-1.077 2.877-1.077 1.2 0 2.167.359 2.899 1.077.733.716 1.098 1.676 1.098 2.876v14.189c0 4.363-1.178 7.694-3.536 9.993-2.357 2.3-5.761 3.448-10.212 3.448-4.481 0-7.885-1.142-10.213-3.426M527.921 106.739c.702.732 1.054 1.684 1.054 2.854v23.898c0 1.113-.323 1.99-.967 2.634-.644.644-1.493.967-2.548.967-1.025 0-1.867-.323-2.527-.967-.657-.644-.988-1.521-.988-2.634v-12.916l-5.008 9.225c-.498.938-1.024 1.603-1.58 1.999-.557.395-1.216.593-1.977.593-.761 0-1.421-.198-1.976-.593-.556-.396-1.084-1.061-1.583-1.999l-4.962-8.96v12.65c0 1.084-.33 1.954-.988 2.614-.66.659-1.515.988-2.57.988-1.026 0-1.868-.323-2.528-.967-.657-.644-.986-1.521-.986-2.634v-23.898c0-1.17.358-2.122 1.076-2.854.717-.732 1.632-1.099 2.744-1.099.792 0 1.509.227 2.153.681.645.455 1.185 1.106 1.625 1.955l8.083 15.199 8.039-15.199c.908-1.757 2.138-2.636 3.69-2.636 1.112 0 2.02.367 2.724 1.099" fill="#ee1a6d"/><g clip-path="url(#a)" transform="matrix(.13333 0 0 -.13333 0 248.027)"><path d="M987.855 678.551l-.019-.012-107.453 233.09-81.121-175.981 235.708-106.097.01.019c-21.01 10.09-37.828 27.52-47.125 48.981" fill="url(#b)"/></g><g clip-path="url(#c)" transform="matrix(.13333 0 0 -.13333 0 248.027)"><path d="M1164.61 758.172l.09.039-194.618 422.019c-.547 1.32-1.184 2.59-1.789 3.88l-1.465 3.16-.047-.02c-.332.64-.703 1.25-1.054 1.89 7.382-13.69 11.582-29.34 11.582-45.98 0-14.34-3.196-27.91-8.782-40.16l.059-.02-88.203-191.351 107.441-233.09.031.012c14.905-34.391 49.125-58.473 88.995-58.473 53.57 0 96.99 43.434 96.99 97 0 14.711-3.37 28.602-9.23 41.094" fill="url(#d)"/></g><g clip-path="url(#e)" transform="matrix(.13333 0 0 -.13333 0 248.027)"><path d="M880.316 1240.16c-37.687 0-70.265-21.53-86.328-52.91l-.05.02-1.465-3.16c-.606-1.29-1.239-2.56-1.785-3.88L596.066 758.211l.09-.039c-5.859-12.492-9.23-26.383-9.23-41.094 0-53.566 43.418-97 96.992-97 39.875 0 74.094 24.082 88.996 58.473l.02-.012 195.652 424.441-.059.02c5.586 12.25 8.782 25.82 8.782 40.16 0 53.57-43.43 97-96.993 97" fill="url(#f)"/></g></svg>